{
    "asset" : {
        "generator" : "Khronos glTF Blender I/O v3.4.50",
        "version" : "2.0"
    },
    "scene" : 0,
    "scenes" : [
        {
            "name" : "Scene",
            "nodes" : [
                0,
                1,
                2
            ]
        }
    ],
    "nodes" : [
        {
            "mesh" : 0,
            "name" : "Body"
        },
        {
            "mesh" : 1,
            "name" : "Display",
            "rotation" : [
                -0.7071068286895752,
                0,
                0,
                0.7071068286895752
            ],
            "translation" : [
                0,
                0.00974702462553978,
                -0.10477183759212494
            ]
        },
        {
            "mesh" : 2,
            "name" : "ScreenAnimation",
            "rotation" : [
                -0.7071068286895752,
                0,
                0,
                0.7071068286895752
            ],
            "translation" : [
                0,
                0.00974702462553978,
                -0.10477183759212494
            ]
        }
    ],
    "materials" : [
        {
            "doubleSided" : true,
            "name" : "Body",
            "pbrMetallicRoughness" : {
                "baseColorTexture" : {
                    "index" : 0
                },
                "metallicFactor" : 0.8031495809555054,
                "metallicRoughnessTexture" : {
                    "index" : 1
                }
            }
        },
        {
            "doubleSided" : true,
            "name" : "Keys",
            "pbrMetallicRoughness" : {
                "baseColorTexture" : {
                    "index" : 2
                },
                "metallicFactor" : 0,
                "roughnessFactor" : 0.5
            }
        },
        {
            "doubleSided" : true,
            "name" : "Display",
            "pbrMetallicRoughness" : {
                "baseColorTexture" : {
                    "index" : 3
                },
                "metallicFactor" : 0.8031495809555054,
                "metallicRoughnessTexture" : {
                    "index" : 4
                }
            }
        },
        {
            "doubleSided" : true,
            "name" : "Screen",
            "pbrMetallicRoughness" : {
                "baseColorTexture" : {
                    "index" : 5
                },
                "metallicFactor" : 0,
                "roughnessFactor" : 0.5
            }
        }
    ],
    "meshes" : [
        {
            "name" : "Cube",
            "primitives" : [
                {
                    "attributes" : {
                        "POSITION" : 0,
                        "TEXCOORD_0" : 1,
                        "NORMAL" : 2
                    },
                    "indices" : 3,
                    "material" : 0
                },
                {
                    "attributes" : {
                        "POSITION" : 4,
                        "TEXCOORD_0" : 5,
                        "NORMAL" : 6
                    },
                    "indices" : 7,
                    "material" : 1
                }
            ]
        },
        {
            "name" : "Cube.002",
            "primitives" : [
                {
                    "attributes" : {
                        "POSITION" : 8,
                        "TEXCOORD_0" : 9,
                        "NORMAL" : 10
                    },
                    "indices" : 11,
                    "material" : 2
                }
            ]
        },
        {
            "name" : "Cube.001",
            "primitives" : [
                {
                    "attributes" : {
                        "POSITION" : 12,
                        "TEXCOORD_0" : 13,
                        "NORMAL" : 14
                    },
                    "indices" : 15,
                    "material" : 3
                }
            ]
        }
    ],
    "textures" : [
        {
            "sampler" : 0,
            "source" : 0
        },
        {
            "sampler" : 0,
            "source" : 1
        },
        {
            "sampler" : 0,
            "source" : 2
        },
        {
            "sampler" : 0,
            "source" : 3
        },
        {
            "sampler" : 0,
            "source" : 4
        },
        {
            "sampler" : 0,
            "source" : 5
        }
    ],
    "images" : [
        {
            "bufferView" : 4,
            "mimeType" : "image/png",
            "name" : "Body Color"
        },
        {
            "bufferView" : 5,
            "mimeType" : "image/png",
            "name" : "Body Roughness"
        },
        {
            "bufferView" : 10,
            "mimeType" : "image/png",
            "name" : "Keys Color"
        },
        {
            "bufferView" : 15,
            "mimeType" : "image/png",
            "name" : "Display Color"
        },
        {
            "bufferView" : 16,
            "mimeType" : "image/png",
            "name" : "Display Roughness"
        },
        {
            "bufferView" : 21,
            "mimeType" : "image/png",
            "name" : "javascript"
        }
    ],
    "accessors" : [
        {
            "bufferView" : 0,
            "componentType" : 5126,
            "count" : 444,
            "max" : [
                0.152246356010437,
                0.009643816389143467,
                0.09618660807609558
            ],
            "min" : [
                -0.152246356010437,
                0.0019109565764665604,
                -0.10479889810085297
            ],
            "type" : "VEC3"
        },
        {
            "bufferView" : 1,
            "componentType" : 5126,
            "count" : 444,
            "type" : "VEC2"
        },
        {
            "bufferView" : 2,
            "componentType" : 5126,
            "count" : 444,
            "type" : "VEC3"
        },
        {
            "bufferView" : 3,
            "componentType" : 5123,
            "count" : 1416,
            "type" : "SCALAR"
        },
        {
            "bufferView" : 6,
            "componentType" : 5126,
            "count" : 8054,
            "max" : [
                0.1361052691936493,
                0.009755472652614117,
                0.013071656227111816
            ],
            "min" : [
                -0.13568215072155,
                0.007855813950300217,
                -0.09061804413795471
            ],
            "type" : "VEC3"
        },
        {
            "bufferView" : 7,
            "componentType" : 5126,
            "count" : 8054,
            "type" : "VEC2"
        },
        {
            "bufferView" : 8,
            "componentType" : 5126,
            "count" : 8054,
            "type" : "VEC3"
        },
        {
            "bufferView" : 9,
            "componentType" : 5123,
            "count" : 21372,
            "type" : "SCALAR"
        },
        {
            "bufferView" : 11,
            "componentType" : 5126,
            "count" : 206,
            "max" : [
                0.15235665440559387,
                0.004356078803539276,
                0.20088982582092285
            ],
            "min" : [
                -0.15235665440559387,
                -0.003983779344707727,
                -0.00178884482011199
            ],
            "type" : "VEC3"
        },
        {
            "bufferView" : 12,
            "componentType" : 5126,
            "count" : 206,
            "type" : "VEC2"
        },
        {
            "bufferView" : 13,
            "componentType" : 5126,
            "count" : 206,
            "type" : "VEC3"
        },
        {
            "bufferView" : 14,
            "componentType" : 5123,
            "count" : 534,
            "type" : "SCALAR"
        },
        {
            "bufferView" : 17,
            "componentType" : 5126,
            "count" : 20,
            "max" : [
                0.14914530515670776,
                0.0012563216732814908,
                0.19767847657203674
            ],
            "min" : [
                -0.14914530515670776,
                0.0012563144555315375,
                0.0032113564666360617
            ],
            "type" : "VEC3"
        },
        {
            "bufferView" : 18,
            "componentType" : 5126,
            "count" : 20,
            "type" : "VEC2"
        },
        {
            "bufferView" : 19,
            "componentType" : 5126,
            "count" : 20,
            "type" : "VEC3"
        },
        {
            "bufferView" : 20,
            "componentType" : 5123,
            "count" : 54,
            "type" : "SCALAR"
        }
    ],
    "bufferViews" : [
        {
            "buffer" : 0,
            "byteLength" : 5328,
            "byteOffset" : 0,
            "target" : 34962
        },
        {
            "buffer" : 0,
            "byteLength" : 3552,
            "byteOffset" : 5328,
            "target" : 34962
        },
        {
            "buffer" : 0,
            "byteLength" : 5328,
            "byteOffset" : 8880,
            "target" : 34962
        },
        {
            "buffer" : 0,
            "byteLength" : 2832,
            "byteOffset" : 14208,
            "target" : 34963
        },
        {
            "buffer" : 0,
            "byteLength" : 403366,
            "byteOffset" : 17040
        },
        {
            "buffer" : 0,
            "byteLength" : 713117,
            "byteOffset" : 420408
        },
        {
            "buffer" : 0,
            "byteLength" : 96648,
            "byteOffset" : 1133528,
            "target" : 34962
        },
        {
            "buffer" : 0,
            "byteLength" : 64432,
            "byteOffset" : 1230176,
            "target" : 34962
        },
        {
            "buffer" : 0,
            "byteLength" : 96648,
            "byteOffset" : 1294608,
            "target" : 34962
        },
        {
            "buffer" : 0,
            "byteLength" : 42744,
            "byteOffset" : 1391256,
            "target" : 34963
        },
        {
            "buffer" : 0,
            "byteLength" : 477783,
            "byteOffset" : 1434000
        },
        {
            "buffer" : 0,
            "byteLength" : 2472,
            "byteOffset" : 1911784,
            "target" : 34962
        },
        {
            "buffer" : 0,
            "byteLength" : 1648,
            "byteOffset" : 1914256,
            "target" : 34962
        },
        {
            "buffer" : 0,
            "byteLength" : 2472,
            "byteOffset" : 1915904,
            "target" : 34962
        },
        {
            "buffer" : 0,
            "byteLength" : 1068,
            "byteOffset" : 1918376,
            "target" : 34963
        },
        {
            "buffer" : 0,
            "byteLength" : 277673,
            "byteOffset" : 1919444
        },
        {
            "buffer" : 0,
            "byteLength" : 18399,
            "byteOffset" : 2197120
        },
        {
            "buffer" : 0,
            "byteLength" : 240,
            "byteOffset" : 2215520,
            "target" : 34962
        },
        {
            "buffer" : 0,
            "byteLength" : 160,
            "byteOffset" : 2215760,
            "target" : 34962
        },
        {
            "buffer" : 0,
            "byteLength" : 240,
            "byteOffset" : 2215920,
            "target" : 34962
        },
        {
            "buffer" : 0,
            "byteLength" : 108,
            "byteOffset" : 2216160,
            "target" : 34963
        },
        {
            "buffer" : 0,
            "byteLength" : 27281,
            "byteOffset" : 2216268
        }
    ],
    "samplers" : [
        {
            "magFilter" : 9729,
            "minFilter" : 9987
        }
    ],
    "buffers" : [
        {
            "byteLength" : 2243552,
            "uri" : "data:application/octet-stream;base64,"
        }
    ]
}
